Format                          : AVI 
Format/Info                      : Audio Video Interleave 
File size                        : 197 MiB 
Duration                        : 23mn 34s 
Overall bit rate                : 1 171 Kbps 
Writing application              : MEncoder UNKNOWN-4.2.4 
Writing library                  : MPlayer 

Video 
ID                              : 0 
Format                          : AVC 
Format/Info                      : Advanced Video Codec 
Format profile                  : Main@L3.0 
Format settings, CABAC          : Yes 
Format settings, ReFrames        : 2 frames 
Codec ID                        : h264 
Duration                        : 23mn 34s 
Bit rate                        : 1 030 Kbps 
Nominal bit rate                : 1 050 Kbps 
Width                            : 640 pixels 
Height                          : 368 pixels 
Display aspect ratio            : 16:9 
Frame rate                      : 25.000 fps 
Resolution                      : 24 bits 
Colorimetry                      : 4:2:0 
Scan type                        : Progressive 
Bits/(Pixel*Frame)              : 0.175 
Stream size                      : 174 MiB (88%) 
Writing library                  : x264 core 67 r1173 f6d3166 


Audio 
ID                              : 1 
Format                          : MPEG Audio 
Format version                  : Version 1 
Format profile                  : Layer 3 
Format_Settings_Mode            : Joint stereo / MS Stereo 
Codec ID                        : 55 
Codec ID/Hint                    : MP3 
Duration                        : 23mn 34s 
Bit rate mode                    : Constant 
Bit rate                        : 128 Kbps 
Channel(s)                      : 2 channels 
Sampling rate                    : 48.0 KHz 
Resolution                      : 16 bits 
Video delay                      : 40ms 
Stream size                      : 21.6 MiB (11%) 
Alignment                        : Aligned on interleaves 
Interleave, duration            : 24 ms (0.60 video frame)